<svg version="1.1" xmlns="http://www.w3.org/2000/svg" viewBox="0 0 811.4196890144449 480.5466221115281" width="811.4196890144449" height="480.5466221115281">
  <!-- svg-source:excalidraw -->

  <defs>
    <style class="style-fonts">
      @font-face {
        font-family: "Virgil";
        src: url("https://excalidraw.com/Virgil.woff2");
      }
      @font-face {
        font-family: "Cascadia";
        src: url("https://excalidraw.com/Cascadia.woff2");
      }
      @font-face {
        font-family: "Assistant";
        src: url("https://excalidraw.com/Assistant-Regular.woff2");
      }
    </style>

  </defs>
  <rect x="0" y="0" width="811.4196890144449" height="480.5466221115281" fill="#ffffff"></rect><g stroke-opacity="0.9" fill-opacity="0.9" stroke-linecap="round" transform="translate(371.5316559980947 10) rotate(0 115.68087454230863 43.59364840506805)"><path d="M3.34 8.2 C3.34 8.2, 3.34 8.2, 3.34 8.2 M3.34 8.2 C3.34 8.2, 3.34 8.2, 3.34 8.2 M1.11 16.86 C1.37 14.95, 6.6 8.75, 10.95 5.54 M1.11 16.86 C1.77 14.99, 3.44 11.69, 10.95 5.54 M0.85 23.26 C8.77 21.06, 7.19 16.04, 17.9 3.64 M0.85 23.26 C8.49 15.47, 13.6 5.72, 17.9 3.64 M0.58 29.66 C8.68 22.28, 14.72 19.54, 24.2 2.49 M0.58 29.66 C6.78 23.37, 11.42 17.08, 24.2 2.49 M0.98 35.3 C11.98 20.09, 21.3 9.98, 29.85 2.09 M0.98 35.3 C9.86 27.01, 18.4 14.01, 29.85 2.09 M0.72 41.7 C10 30.98, 11.48 24.98, 34.83 2.45 M0.72 41.7 C10.53 33.11, 20.03 24.32, 34.83 2.45 M1.11 47.34 C18.77 32.38, 32.08 15.7, 40.48 2.06 M1.11 47.34 C17.62 30.51, 33.5 11.13, 40.48 2.06 M0.85 53.74 C13.05 33, 28.59 16.08, 45.46 2.42 M0.85 53.74 C13.84 38.15, 29.26 22.72, 45.46 2.42 M0.59 60.14 C15.37 42.2, 25.76 27.13, 50.45 2.78 M0.59 60.14 C18.08 40.17, 36.28 21.52, 50.45 2.78 M0.98 65.78 C20.68 40.78, 36.6 23.46, 56.09 2.39 M0.98 65.78 C12.95 52.53, 24.25 39.05, 56.09 2.39 M1.38 71.42 C18.42 50.15, 31.32 39.42, 61.08 2.75 M1.38 71.42 C22.77 49.11, 41.7 25.71, 61.08 2.75 M3.09 75.56 C20.31 52.44, 39.15 29.88, 66.72 2.35 M3.09 75.56 C24.46 51.7, 43.2 27.68, 66.72 2.35 M4.79 79.69 C29.22 56.02, 47.48 31.23, 71.71 2.71 M4.79 79.69 C18.27 63.17, 33.79 49.37, 71.71 2.71 M7.16 83.07 C34.01 54.63, 58.77 20.28, 77.35 2.32 M7.16 83.07 C29.68 57.63, 49.73 31.26, 77.35 2.32 M10.83 84.94 C31.1 62.31, 59.57 29.32, 82.34 2.68 M10.83 84.94 C37.16 55.7, 61.96 24.85, 82.34 2.68 M13.85 87.56 C31.54 68.16, 48.74 51.97, 87.33 3.04 M13.85 87.56 C37.49 63.5, 57.17 37.29, 87.33 3.04 M19.49 87.17 C39.91 55.85, 68.63 26.42, 92.97 2.64 M19.49 87.17 C48.36 54.47, 76.72 21.76, 92.97 2.64 M24.48 87.53 C46 66.17, 66.9 37.02, 97.96 3 M24.48 87.53 C51.6 56.84, 75.69 29.24, 97.96 3 M30.12 87.14 C59.07 52.6, 85.93 23.38, 103.6 2.61 M30.12 87.14 C53.66 60.02, 74.76 33.75, 103.6 2.61 M35.11 87.5 C53.51 59.36, 80.86 38.06, 108.59 2.97 M35.11 87.5 C63.2 57.32, 88.66 28.2, 108.59 2.97 M40.1 87.86 C64.62 53.07, 92.56 25.25, 114.23 2.57 M40.1 87.86 C64.04 57.42, 88.88 29.16, 114.23 2.57 M45.74 87.46 C71.76 56.73, 96.21 27.61, 119.22 2.93 M45.74 87.46 C65.17 62.66, 85.63 38.74, 119.22 2.93 M50.73 87.82 C75.14 54.44, 105.2 30.32, 124.2 3.29 M50.73 87.82 C69.59 63.37, 91.14 40.97, 124.2 3.29 M56.37 87.43 C72.69 66.34, 91.04 50.57, 129.85 2.9 M56.37 87.43 C78.99 65.07, 99.02 40.61, 129.85 2.9 M61.36 87.79 C84.79 66.56, 99.42 45.09, 134.83 3.26 M61.36 87.79 C85.24 63.75, 107.81 36.88, 134.83 3.26 M67 87.39 C88.51 67.66, 108.08 40.54, 140.48 2.86 M67 87.39 C84.11 67.08, 99.39 45.92, 140.48 2.86 M71.99 87.75 C94.65 63.96, 114.13 35.75, 145.46 3.22 M71.99 87.75 C90.43 65.99, 110.54 46.33, 145.46 3.22 M76.97 88.11 C98.52 62.56, 116.88 35.51, 151.11 2.83 M76.97 88.11 C106.9 58.13, 133.41 25.16, 151.11 2.83 M82.62 87.72 C108.4 63.76, 126.28 32.82, 156.1 3.19 M82.62 87.72 C105.14 59.81, 127.71 31.91, 156.1 3.19 M87.6 88.08 C109.51 56.75, 136.68 29.31, 161.08 3.55 M87.6 88.08 C111.25 60.73, 135.06 34.9, 161.08 3.55 M93.25 87.68 C118.81 58.42, 144.56 29.02, 166.73 3.16 M93.25 87.68 C114.63 61.04, 134.83 37.47, 166.73 3.16 M98.23 88.04 C113.61 71.03, 134.13 45.92, 171.71 3.52 M98.23 88.04 C124.71 57.56, 153.8 24.13, 171.71 3.52 M103.88 87.65 C123.06 65.46, 146.69 38.34, 177.36 3.12 M103.88 87.65 C133.13 56.07, 160.27 24.52, 177.36 3.12 M108.86 88.01 C127.8 66.63, 145.65 40.87, 182.34 3.48 M108.86 88.01 C127.03 68.82, 149.08 44.33, 182.34 3.48 M113.85 88.37 C139 54.19, 173.95 21.09, 187.99 3.09 M113.85 88.37 C139.71 58.12, 167.36 28.32, 187.99 3.09 M119.49 87.97 C146.29 54.61, 171.32 28.56, 192.97 3.45 M119.49 87.97 C144.78 56.12, 169.76 26.1, 192.97 3.45 M124.48 88.33 C147.85 59.76, 173.16 26.66, 197.96 3.81 M124.48 88.33 C139.54 65.57, 157.81 46.32, 197.96 3.81 M130.12 87.94 C151.23 69.02, 160.72 47.34, 203.6 3.41 M130.12 87.94 C150.7 65.03, 170.96 40.71, 203.6 3.41 M135.11 88.3 C154.76 63.09, 173.97 42.36, 208.59 3.77 M135.11 88.3 C161.87 54.97, 191.41 20.12, 208.59 3.77 M140.75 87.91 C162.66 66.48, 177.06 38.88, 214.23 3.38 M140.75 87.91 C165.32 55.86, 189.93 28.17, 214.23 3.38 M145.74 88.27 C160 67.43, 181.02 50.87, 220.53 2.23 M145.74 88.27 C164.89 66.79, 185.4 45.35, 220.53 2.23 M150.73 88.63 C168.54 64.31, 183.47 48.47, 223.55 4.85 M150.73 88.63 C167.12 68.9, 184.46 48.48, 223.55 4.85 M156.37 88.23 C180.91 62.35, 202.08 35.13, 226.57 7.48 M156.37 88.23 C181.85 59.07, 205.17 29.72, 226.57 7.48 M161.36 88.59 C181.9 64.27, 211.95 32.98, 229.59 10.1 M161.36 88.59 C188.37 56.67, 215.17 29.4, 229.59 10.1 M167 88.2 C187.09 66.33, 213.74 41.08, 231.29 14.23 M167 88.2 C187.31 63.55, 210.14 39.95, 231.29 14.23 M171.99 88.56 C187.35 71.99, 201.55 48.05, 233 18.37 M171.99 88.56 C192.1 66.2, 216.11 38.91, 233 18.37 M177.63 88.16 C196.18 63.4, 218 44.46, 232.74 24.77 M177.63 88.16 C195.53 67.85, 212.36 43.96, 232.74 24.77 M182.62 88.52 C191.83 72.75, 202.19 57.46, 232.48 31.16 M182.62 88.52 C195.83 76.35, 207.58 59.6, 232.48 31.16 M187.61 88.88 C198.39 74.13, 212.63 58.86, 232.87 36.81 M187.61 88.88 C205.95 69.66, 221.67 48.71, 232.87 36.81 M193.25 88.49 C207.76 70.93, 221 55.07, 232.61 43.2 M193.25 88.49 C209.71 71.66, 224.5 52.68, 232.61 43.2 M198.24 88.85 C205.04 82.98, 211.83 74.15, 232.35 49.6 M198.24 88.85 C206.26 81.73, 212.8 73.14, 232.35 49.6 M203.88 88.45 C210.17 76.95, 223.6 63.07, 232.09 56 M203.88 88.45 C214.89 78.67, 224.91 66.45, 232.09 56 M210.18 87.3 C216.2 78.85, 216.33 78.37, 232.48 61.64 M210.18 87.3 C216.05 79.31, 221.58 73.54, 232.48 61.64 M216.48 86.15 C221.37 77.4, 226.64 73.34, 232.22 68.04 M216.48 86.15 C219.66 79.78, 225.33 73.51, 232.22 68.04 M5.65 81.91 C5.65 81.91, 5.65 81.91, 5.65 81.91 M5.65 81.91 C5.65 81.91, 5.65 81.91, 5.65 81.91 M15.82 85.45 C12.02 84.9, 8.96 76.49, 1.48 72.99 M15.82 85.45 C10.35 80.34, 6.62 76.06, 1.48 72.99 M22.22 85.71 C18.61 78.7, 4.24 71.27, 1.08 67.34 M22.22 85.71 C13.5 79.82, 3.86 73.17, 1.08 67.34 M27.86 85.32 C22.91 80.56, 16.39 76.29, 0.69 61.7 M27.86 85.32 C18.71 78.73, 10.26 73.01, 0.69 61.7 M34.26 85.58 C24.15 77.55, 12.44 68.19, 1.05 56.71 M34.26 85.58 C23.12 77, 13.02 65.9, 1.05 56.71 M40.66 85.84 C29.66 69.22, 11.18 55.93, 0.66 51.07 M40.66 85.84 C30.33 76.79, 19.91 66.12, 0.66 51.07 M46.3 85.45 C26.76 67.31, 11.8 56.06, 1.02 46.08 M46.3 85.45 C34.66 75.72, 25.96 65.57, 1.02 46.08 M52.7 85.71 C32.11 71.21, 17.31 49.97, 0.62 40.44 M52.7 85.71 C39.62 71.68, 26.88 60.81, 0.62 40.44 M59.09 85.97 C46.48 72.09, 31.03 67.9, 0.98 35.45 M59.09 85.97 C41.95 71.25, 23.58 57.74, 0.98 35.45 M64.74 85.58 C39.29 68.28, 16.36 49.46, 0.59 29.81 M64.74 85.58 C47.46 70.28, 27.04 52.72, 0.59 29.81 M71.13 85.84 C57.53 72.65, 40.81 57.65, 0.95 24.82 M71.13 85.84 C50.77 70.76, 31.72 52.78, 0.95 24.82 M77.53 86.1 C49.39 59.54, 19.97 35.33, 0.55 19.18 M77.53 86.1 C51.73 62.55, 22.69 39.96, 0.55 19.18 M83.18 85.7 C58.91 66.98, 39.18 47.3, 0.91 14.19 M83.18 85.7 C51.37 57.53, 19.63 29.54, 0.91 14.19 M89.57 85.97 C50.71 56.73, 16.97 23.54, 2.78 10.52 M89.57 85.97 C58.82 60.12, 26.02 32.06, 2.78 10.52 M95.97 86.23 C59.53 57.75, 30.47 26.23, 4.65 6.84 M95.97 86.23 C61.16 54.07, 23.69 23.45, 4.65 6.84 M101.61 85.83 C76.45 68.33, 60.89 48.79, 7.28 3.82 M101.61 85.83 C70.14 59.64, 39.52 30.68, 7.28 3.82 M108.01 86.09 C77.62 56.71, 46.4 34.23, 11.41 2.12 M108.01 86.09 C82.95 61.95, 56.38 39.6, 11.41 2.12 M114.41 86.36 C83.87 63.16, 61.13 40.5, 16.3 1.07 M114.41 86.36 C92.41 67.24, 70.6 51.14, 16.3 1.07 M120.05 85.96 C88.6 62.44, 60.85 36.81, 21.19 0.02 M120.05 85.96 C83.25 52.95, 48.16 22.12, 21.19 0.02 M126.45 86.22 C92.05 58.09, 67.96 36.74, 26.83 -0.38 M126.45 86.22 C94.77 58.28, 59.66 27.57, 26.83 -0.38 M132.85 86.48 C101.67 60.6, 64.32 27.16, 33.23 -0.12 M132.85 86.48 C98.19 56.17, 62.9 27.05, 33.23 -0.12 M138.49 86.09 C105.24 58.9, 70.58 31.91, 38.87 -0.51 M138.49 86.09 C111.51 64.02, 88.83 43.3, 38.87 -0.51 M144.89 86.35 C114.8 59.08, 84.75 40, 45.27 -0.25 M144.89 86.35 C112.58 54.05, 79.09 27.79, 45.27 -0.25 M151.29 86.61 C114.3 58.97, 85.58 29.45, 51.67 0.01 M151.29 86.61 C118.82 57.03, 82.23 31.03, 51.67 0.01 M156.93 86.22 C133.37 67.57, 103.8 40.72, 57.31 -0.38 M156.93 86.22 C136.01 67.76, 114.04 50.3, 57.31 -0.38 M163.33 86.48 C127.96 56.41, 102.98 28.33, 63.71 -0.12 M163.33 86.48 C141.54 66.89, 118.02 46.44, 63.71 -0.12 M169.73 86.74 C137.44 55.67, 110.12 37.62, 70.1 0.14 M169.73 86.74 C133.55 55.17, 97.38 26.87, 70.1 0.14 M175.37 86.35 C149.8 62.98, 124.84 39.02, 75.75 -0.25 M175.37 86.35 C138.52 53.95, 100.01 23.73, 75.75 -0.25 M181.77 86.61 C145.84 52.03, 113.37 20.17, 82.14 0.01 M181.77 86.61 C159.04 66.59, 133.47 45.52, 82.14 0.01 M188.16 86.87 C150.16 55.49, 119.14 26.15, 88.54 0.27 M188.16 86.87 C167.35 66.6, 147.76 48.11, 88.54 0.27 M193.81 86.47 C157.57 54.98, 119.4 22.34, 94.19 -0.13 M193.81 86.47 C173.03 68.11, 150.04 48.8, 94.19 -0.13 M200.21 86.74 C164.98 59.16, 128.54 27.21, 100.58 0.14 M200.21 86.74 C174.39 66.74, 153.29 44.72, 100.58 0.14 M206.6 87 C185.21 67.89, 161.87 45.27, 106.98 0.4 M206.6 87 C174.25 60.19, 147.26 33.01, 106.98 0.4 M212.25 86.6 C187.78 62.23, 152.43 31.87, 112.62 0 M212.25 86.6 C190.53 68.97, 170.23 49.07, 112.62 0 M217.13 85.55 C188.13 58.97, 161.97 38.14, 119.02 0.26 M217.13 85.55 C181.73 52.96, 142.48 17.95, 119.02 0.26 M222.02 84.5 C191.79 53.57, 160.19 27.74, 125.42 0.53 M222.02 84.5 C200.97 65.3, 178.69 45.02, 125.42 0.53 M224.65 81.48 C189.34 47.87, 155.04 16.16, 131.06 0.13 M224.65 81.48 C203.78 62.82, 179.73 42.97, 131.06 0.13 M227.27 78.46 C204.56 57.42, 192.71 45.37, 137.46 0.39 M227.27 78.46 C197.66 54.84, 171.04 29.46, 137.46 0.39 M229.9 75.44 C198.62 48.73, 166.05 21.35, 143.86 0.65 M229.9 75.44 C200.53 48.96, 169.72 24.23, 143.86 0.65 M230.26 70.46 C198.27 45.4, 173.3 20.38, 149.5 0.26 M230.26 70.46 C213.05 55.96, 199.54 41.49, 149.5 0.26 M230.62 65.47 C196.49 42.22, 169.83 15.87, 155.9 0.52 M230.62 65.47 C199.64 41.27, 174.07 16.26, 155.9 0.52 M230.98 60.48 C206.64 39.54, 185.07 23.06, 162.3 0.78 M230.98 60.48 C206.19 37.59, 180.26 17.28, 162.3 0.78 M230.58 54.84 C208.97 35.01, 184.85 12.92, 167.94 0.39 M230.58 54.84 C205.8 37.37, 182.9 15.16, 167.94 0.39 M230.94 49.85 C212.36 33.88, 191.82 15.04, 174.34 0.65 M230.94 49.85 C217.95 37.27, 202.07 24.39, 174.34 0.65 M230.55 44.21 C213.28 24.14, 195.41 10.66, 180.74 0.91 M230.55 44.21 C209.93 27.91, 190.12 9.54, 180.74 0.91 M230.91 39.22 C219.7 23.49, 206.41 19.69, 186.38 0.52 M230.91 39.22 C213.67 24.34, 196.67 8.34, 186.38 0.52 M231.27 34.24 C221.86 30.21, 213.47 18.87, 192.78 0.78 M231.27 34.24 C221.42 27.59, 213.29 21.67, 192.78 0.78 M230.87 28.59 C227.31 25.08, 214.24 16.63, 199.17 1.04 M230.87 28.59 C218.74 16.79, 208.25 6.95, 199.17 1.04 M231.23 23.61 C222.79 17.44, 218.26 12.52, 204.82 0.64 M231.23 23.61 C224.16 19, 216.17 10.68, 204.82 0.64 M231.59 18.62 C227.97 15.92, 221.01 8.76, 211.22 0.91 M231.59 18.62 C226.48 13.06, 223.68 10.21, 211.22 0.91 M230.44 12.32 C224.27 9.3, 223.85 3.33, 217.61 1.17 M230.44 12.32 C228.07 11.1, 225.84 6.22, 217.61 1.17" stroke="#ffc9c9" stroke-width="0.5" fill="none"></path><path d="M21.8 0 C70.51 1.56, 121.1 -0.36, 209.56 0 M21.8 0 C66.71 0.99, 115.7 -0.55, 209.56 0 M209.56 0 C221.71 1.72, 232.52 6.21, 231.36 21.8 M209.56 0 C227.74 -0.47, 233.16 7.82, 231.36 21.8 M231.36 21.8 C231.53 37.71, 232.53 46.27, 231.36 65.39 M231.36 21.8 C231.08 31.89, 229.06 44.87, 231.36 65.39 M231.36 65.39 C234.48 81.93, 221.44 86.64, 209.56 87.19 M231.36 65.39 C231.56 81.1, 228.36 90.77, 209.56 87.19 M209.56 87.19 C155.55 90.65, 104.36 89.82, 21.8 87.19 M209.56 87.19 C159.12 83.99, 110.21 84.4, 21.8 87.19 M21.8 87.19 C8.29 87.15, -2.42 82.59, 0 65.39 M21.8 87.19 C3.56 87.44, -4.56 83.96, 0 65.39 M0 65.39 C4.49 53.22, 1.43 47.84, 0 21.8 M0 65.39 C-1.37 47.62, -0.98 31.22, 0 21.8 M0 21.8 C-2.26 4.57, 6.35 2.82, 21.8 0 M0 21.8 C3.88 6.77, 3.23 -0.22, 21.8 0" stroke="#1e1e1e" stroke-width="1" fill="none"></path></g><g stroke-opacity="0.9" fill-opacity="0.9" transform="translate(401.83657686608603 43.59364840506805) rotate(0 85.3759536743164 10)"><text x="85.3759536743164" y="0" font-family="Virgil, Segoe UI Emoji" font-size="16px" fill="#1e1e1e" text-anchor="middle" style="white-space: pre;" direction="ltr" dominant-baseline="text-before-edge">The Hogwarts Kitchen</text></g><g stroke-opacity="0.9" fill-opacity="0.9" stroke-linecap="round" transform="translate(46.24868245235484 354.4928793816289) rotate(0 14.43239146693486 12.24698344353203)"><path d="M0.61 3.18 C0.61 3.18, 0.61 3.18, 0.61 3.18 M0.61 3.18 C0.61 3.18, 0.61 3.18, 0.61 3.18 M1.01 8.82 C2.31 8.23, 4.79 5.25, 8.22 0.52 M1.01 8.82 C2.86 7.13, 3.58 6.08, 8.22 0.52 M0.74 15.22 C5.17 12.87, 11.79 4.32, 13.21 0.88 M0.74 15.22 C5.5 12.48, 8.32 7.33, 13.21 0.88 M1.14 20.87 C8.67 14.73, 14.51 9.6, 18.2 1.24 M1.14 20.87 C5.58 13.72, 11.74 6.01, 18.2 1.24 M4.16 23.49 C11.28 19.37, 16.17 14.36, 23.18 1.6 M4.16 23.49 C11.6 16.98, 18.97 8.51, 23.18 1.6 M9.14 23.85 C16.96 13.25, 25.96 4.64, 28.17 1.96 M9.14 23.85 C17.37 15.88, 25.18 8.42, 28.17 1.96 M14.13 24.21 C15.29 15.88, 24.62 14, 29.22 6.85 M14.13 24.21 C17.93 18.76, 22.1 16.43, 29.22 6.85 M19.12 24.57 C23.33 24, 24.45 15.45, 28.96 13.25 M19.12 24.57 C22.66 22.43, 23.46 20.13, 28.96 13.25 M24.76 24.18 C25.51 23.19, 27.58 22.21, 28.04 20.4 M24.76 24.18 C26.34 22.56, 26.9 21.29, 28.04 20.4 M1.36 22.82 C1.36 22.82, 1.36 22.82, 1.36 22.82 M1.36 22.82 C1.36 22.82, 1.36 22.82, 1.36 22.82 M8.52 23.74 C8.35 23.85, 3.37 19.21, 0.97 17.18 M8.52 23.74 C4.58 21.66, 3.01 18.6, 0.97 17.18 M14.91 24 C9.78 22.98, 3.32 12.37, 0.58 11.53 M14.91 24 C11.84 20.36, 6.39 15.08, 0.58 11.53 M21.31 24.26 C17.29 18.36, 10.22 12.68, 0.18 5.89 M21.31 24.26 C15.4 20.64, 8.19 13.86, 0.18 5.89 M26.2 23.21 C22.21 17.56, 13.78 9.93, 2.05 2.21 M26.2 23.21 C16.25 15.84, 6.92 5.67, 2.05 2.21 M28.07 19.53 C23.28 8.51, 13.79 2.1, 6.18 0.51 M28.07 19.53 C18.94 13.69, 13.74 6.82, 6.18 0.51 M28.43 14.55 C18.33 7.09, 19.11 1.85, 11.83 0.11 M28.43 14.55 C22.88 9, 18.86 6.99, 11.83 0.11 M28.79 9.56 C25.67 5.44, 23.65 4.89, 18.22 0.37 M28.79 9.56 C25.22 7.04, 21.26 2.98, 18.22 0.37 M28.4 3.92 C28.11 3.55, 27.18 3, 24.62 0.64 M28.4 3.92 C27.34 2.56, 26.21 1.74, 24.62 0.64" stroke="#ffc9c9" stroke-width="0.5" fill="none"></path><path d="M6.12 0 C12.73 1.53, 19.36 -1.21, 22.74 0 M6.12 0 C9.15 0.78, 12.61 0.74, 22.74 0 M22.74 0 C30.73 -2.05, 29.68 2.3, 28.86 6.12 M22.74 0 C27.81 1.14, 27.02 4.27, 28.86 6.12 M28.86 6.12 C29.44 7.94, 29.19 12.74, 28.86 18.37 M28.86 6.12 C28.98 10.6, 29.12 12.02, 28.86 18.37 M28.86 18.37 C25.23 24.1, 30.29 26.96, 22.74 24.49 M28.86 18.37 C26.66 18.78, 27.16 22.08, 22.74 24.49 M22.74 24.49 C20.58 27.49, 18.58 27.49, 6.12 24.49 M22.74 24.49 C19.31 24.77, 15.18 26.17, 6.12 24.49 M6.12 24.49 C-0.56 23.47, 1.12 23.73, 0 18.37 M6.12 24.49 C4.51 22.01, 1.34 23.01, 0 18.37 M0 18.37 C-0.77 12.01, 0.82 10.8, 0 6.12 M0 18.37 C-0.13 16.89, -0.18 13.05, 0 6.12 M0 6.12 C1.68 3.15, 0.14 -2.08, 6.12 0 M0 6.12 C-1.56 4.07, 1.44 -2.12, 6.12 0" stroke="#1e1e1e" stroke-width="1" fill="none"></path></g><g stroke-opacity="0.9" fill-opacity="0.9" transform="translate(81.25068005390676 356.65999918569935) rotate(0 44.41596984863281 10)"><text x="0" y="0" font-family="Virgil, Segoe UI Emoji" font-size="16px" fill="#1e1e1e" text-anchor="start" style="white-space: pre;" direction="ltr" dominant-baseline="text-before-edge">My web app</text></g><g mask="url(#mask-hb_X_i47RjTAULH295Ja8)" stroke-linecap="round"><g stroke-opacity="0.9" fill-opacity="0.9" transform="translate(155.069557268067 50.082853097052066) rotate(0 103.46363795136676 -1.6627900397722328)"><path d="M-0.64 -0.13 C33.96 -0.68, 171.94 -3.71, 206.69 -4.13 M1.23 -1.25 C35.73 -1.58, 171.23 -2.44, 205.62 -3.02" stroke="#1e1e1e" stroke-width="2" fill="none"></path></g><g stroke-opacity="0.9" fill-opacity="0.9" transform="translate(155.069557268067 50.082853097052066) rotate(0 103.46363795136676 -1.6627900397722328)"><path d="M207.11 -2.27 L193.75 3.77 L190.79 -8.73 L204.73 -5.01" stroke="none" stroke-width="0" fill="#1e1e1e" fill-rule="evenodd"></path><path d="M205.62 -3.02 C202.37 -1.92, 198.48 1.01, 192.1 3.47 M205.62 -3.02 C200.13 -0.03, 196.02 2.1, 192.1 3.47 M192.1 3.47 C191.98 -1.59, 190.8 -4.67, 191.96 -9.21 M192.1 3.47 C192.42 -0.43, 191.63 -3.62, 191.96 -9.21 M191.96 -9.21 C197.01 -7.66, 204.02 -3.79, 205.62 -3.02 M191.96 -9.21 C194.99 -7.88, 198.67 -6.8, 205.62 -3.02 M205.62 -3.02 C205.62 -3.02, 205.62 -3.02, 205.62 -3.02 M205.62 -3.02 C205.62 -3.02, 205.62 -3.02, 205.62 -3.02" stroke="#1e1e1e" stroke-width="2" fill="none"></path></g></g><mask id="mask-hb_X_i47RjTAULH295Ja8"><rect x="0" y="0" fill="#fff" width="461.9968331708005" height="153.40843317659653"></rect><rect x="219.33322115937517" y="38.42006305727983" fill="#000" width="78.39994812011719" height="20" opacity="1"></rect></mask><g stroke-opacity="0.9" fill-opacity="0.9" transform="translate(219.33322115937517 38.42006305727989) rotate(0 38.76392612568998 9.530160110071279)"><text x="39.199974060058594" y="0" font-family="Virgil, Segoe UI Emoji" font-size="16px" fill="#1e1e1e" text-anchor="middle" style="white-space: pre;" direction="ltr" dominant-baseline="text-before-edge">user input</text></g><g stroke-opacity="0.9" fill-opacity="0.9" stroke-linecap="round" transform="translate(10 27.224708627498387) rotate(0 69.22195601780186 25)"><path d="M12.5 0 C54.25 -3.42, 89.18 -1.22, 125.94 0 M12.5 0 C35.81 -2.05, 59.87 -3.45, 125.94 0 M125.94 0 C131.54 1.9, 136.04 1.87, 138.44 12.5 M125.94 0 C138.27 2.97, 139.18 7.59, 138.44 12.5 M138.44 12.5 C140.6 21.99, 134.92 30.68, 138.44 37.5 M138.44 12.5 C139.66 21.91, 139.03 28.94, 138.44 37.5 M138.44 37.5 C138.9 49.73, 135.9 46.01, 125.94 50 M138.44 37.5 C138.15 47.11, 131.7 47.98, 125.94 50 M125.94 50 C84.6 49.04, 36.22 55.9, 12.5 50 M125.94 50 C96.17 52.19, 61.52 51.59, 12.5 50 M12.5 50 C5.3 48.55, 1.88 48.25, 0 37.5 M12.5 50 C8.64 50.24, -1.8 48.68, 0 37.5 M0 37.5 C1.92 31.24, -2.05 22.85, 0 12.5 M0 37.5 C-2.44 29.08, 1.06 19.82, 0 12.5 M0 12.5 C2.75 7.21, 3.79 3.62, 12.5 0 M0 12.5 C-3.06 8.46, 2.61 0.31, 12.5 0" stroke="#1e1e1e" stroke-width="1" fill="none"></path></g><g stroke-opacity="0.9" fill-opacity="0.9" transform="translate(19.96598983127842 32.22470862749839) rotate(0 59.25596618652344 20)"><text x="59.25596618652344" y="0" font-family="Virgil, Segoe UI Emoji" font-size="16px" fill="#1e1e1e" text-anchor="middle" style="white-space: pre;" direction="ltr" dominant-baseline="text-before-edge">Tomatos, Fish </text><text x="59.25596618652344" y="20" font-family="Virgil, Segoe UI Emoji" font-size="16px" fill="#1e1e1e" text-anchor="middle" style="white-space: pre;" direction="ltr" dominant-baseline="text-before-edge">and Garlic</text></g><g stroke-opacity="0.9" fill-opacity="0.9" stroke-linecap="round" transform="translate(364.3944168810194 423.2109439658103) rotate(0 97.40994921712718 23.667839072858897)"><path d="M11.83 0 C72.64 -4.08, 128.68 -1.16, 182.99 0 M11.83 0 C52.38 -3.19, 93.71 -0.53, 182.99 0 M182.99 0 C190.25 3.33, 197.44 2.43, 194.82 11.83 M182.99 0 C187.33 -1.38, 194.82 7.83, 194.82 11.83 M194.82 11.83 C194.42 17.64, 191.53 28.22, 194.82 35.5 M194.82 11.83 C195.62 19.69, 194.34 28.04, 194.82 35.5 M194.82 35.5 C196.38 41.95, 191.65 50.26, 182.99 47.34 M194.82 35.5 C194.19 41.36, 191.75 51.89, 182.99 47.34 M182.99 47.34 C145.35 48.95, 103.43 47.31, 11.83 47.34 M182.99 47.34 C128.67 49.79, 77.71 47.86, 11.83 47.34 M11.83 47.34 C7.54 45.93, -1.8 45.95, 0 35.5 M11.83 47.34 C4.3 49.13, 1.94 46.01, 0 35.5 M0 35.5 C-0.14 33.38, 3.5 26.51, 0 11.83 M0 35.5 C-1.01 29.96, -0.38 24.45, 0 11.83 M0 11.83 C-0.5 1.87, 4.89 -0.83, 11.83 0 M0 11.83 C-0.03 5.59, 4.02 1.74, 11.83 0" stroke="#1e1e1e" stroke-width="1" fill="none"></path></g><g stroke-opacity="0.9" fill-opacity="0.9" transform="translate(400.2764043671905 436.8787830386692) rotate(0 61.52796173095703 10)"><text x="61.52796173095703" y="0" font-family="Virgil, Segoe UI Emoji" font-size="16px" fill="#1e1e1e" text-anchor="middle" style="white-space: pre;" direction="ltr" dominant-baseline="text-before-edge">GPT 3.5 Turbo</text></g><g stroke-opacity="0.9" fill-opacity="0.9" stroke-linecap="round" transform="translate(368.4143443824614 253.7190964059356) rotate(0 216.50267231599173 15)"><path d="M7.5 0 C99.6 0.59, 190.78 1.35, 425.51 0 M7.5 0 C162.13 -1.29, 318 -1.24, 425.51 0 M425.51 0 C430.23 -1.93, 434.31 1.83, 433.01 7.5 M425.51 0 C428.52 1.62, 434.91 3.31, 433.01 7.5 M433.01 7.5 C431.81 11.62, 433.02 15.11, 433.01 22.5 M433.01 7.5 C433.44 13.37, 433.59 18.3, 433.01 22.5 M433.01 22.5 C432.62 25.73, 429.87 30.65, 425.51 30 M433.01 22.5 C431.48 26.52, 428.35 30.57, 425.51 30 M425.51 30 C272.1 30.84, 118.56 31.84, 7.5 30 M425.51 30 C262.12 29.83, 99.32 29.99, 7.5 30 M7.5 30 C0.62 30.13, -1.84 28.78, 0 22.5 M7.5 30 C3.3 28.82, -0.68 27.28, 0 22.5 M0 22.5 C-0.04 18.18, 0.05 13.95, 0 7.5 M0 22.5 C0.51 18.04, -0.4 12.49, 0 7.5 M0 7.5 C-1.69 3.06, 3.58 0.34, 7.5 0 M0 7.5 C1.43 2.68, 1.51 2.11, 7.5 0" stroke="#e03131" stroke-width="2" fill="none"></path></g><g stroke-opacity="0.9" fill-opacity="0.9" transform="translate(555.2130372062657 258.7190964059356) rotate(0 29.7039794921875 10)"><text x="29.7039794921875" y="0" font-family="Virgil, Segoe UI Emoji" font-size="16px" fill="#e03131" text-anchor="middle" style="white-space: pre;" direction="ltr" dominant-baseline="text-before-edge">Portkey</text></g><g mask="url(#mask-_Wa6wjs0LfDvCgIiU_F0H)" stroke-linecap="round"><g stroke-opacity="0.9" fill-opacity="0.9" transform="translate(416.43958033832496 292.54995129800227) rotate(0 -2.296238439122135 61.94542882433734)"><path d="M-0.24 -0.67 C-0.65 20.02, -2.7 104.06, -3.53 125.01 M1.83 1.59 C1.45 21.9, -2.57 103.19, -3.92 123.47" stroke="#e03131" stroke-width="2" fill="none"></path></g><g stroke-opacity="0.9" fill-opacity="0.9" transform="translate(416.43958033832496 292.54995129800227) rotate(0 -2.296238439122135 61.94542882433734)"><path d="M-2.57 121.57 L-8.75 108.23 L3.11 108.65 L-5.65 125.32" stroke="none" stroke-width="0" fill="#e03131" fill-rule="evenodd"></path><path d="M-3.92 123.47 C-6.03 121.87, -4.95 116.84, -9.49 109.54 M-3.92 123.47 C-6.24 117.57, -7.6 112.19, -9.49 109.54 M-9.49 109.54 C-7.43 109.19, -4.04 110.17, 3.17 110.26 M-9.49 109.54 C-5.14 109.97, -1.26 110.39, 3.17 110.26 M3.17 110.26 C2.23 114.24, -0.9 119.36, -3.92 123.47 M3.17 110.26 C1.31 113.04, 0.55 116.96, -3.92 123.47 M-3.92 123.47 C-3.92 123.47, -3.92 123.47, -3.92 123.47 M-3.92 123.47 C-3.92 123.47, -3.92 123.47, -3.92 123.47" stroke="#e03131" stroke-width="2" fill="none"></path></g></g><mask id="mask-_Wa6wjs0LfDvCgIiU_F0H"><rect x="0" y="0" fill="#fff" width="521.0320572165692" height="516.440808946677"></rect><rect x="388.7993706467623" y="344.4953801223396" fill="#000" width="50.68794250488281" height="20" opacity="1"></rect></mask><g stroke-opacity="0.9" fill-opacity="0.9" transform="translate(388.7993706467623 344.4953801223396) rotate(0 26.593566548544004 10.222050858661532)"><text x="25.343971252441406" y="0" font-family="Virgil, Segoe UI Emoji" font-size="16px" fill="#1e1e1e" text-anchor="middle" style="white-space: pre;" direction="ltr" dominant-baseline="text-before-edge">prompt</text></g><g mask="url(#mask-1MyzW-FR8a6WWqY6O8sDL)" stroke-linecap="round"><g stroke-opacity="0.9" fill-opacity="0.9" transform="translate(473.50870681627384 411.75469402172985) rotate(0 2.138112220678522 -61.226141049047385)"><path d="M-1.11 1.12 C-0.4 -19.44, 2.45 -101.9, 3.39 -122.67 M0.5 0.67 C1.67 -19.78, 5.07 -100.68, 5.63 -121.24" stroke="#e03131" stroke-width="2" fill="none"></path></g><g stroke-opacity="0.9" fill-opacity="0.9" transform="translate(473.50870681627384 411.75469402172985) rotate(0 2.138112220678522 -61.226141049047385)"><path d="M6 -119.93 L11.07 -107.42 L0.72 -107.62 L4.59 -120.12" stroke="none" stroke-width="0" fill="#e03131" fill-rule="evenodd"></path><path d="M5.63 -121.24 C8.44 -119.19, 8.08 -114.64, 11.48 -107.43 M5.63 -121.24 C7.12 -117.82, 8.56 -115.39, 11.48 -107.43 M11.48 -107.43 C6.42 -106.79, 2.55 -109.12, -1.19 -107.88 M11.48 -107.43 C8.22 -107.86, 3.71 -107.33, -1.19 -107.88 M-1.19 -107.88 C-0.12 -113.03, 1.96 -116.62, 5.63 -121.24 M-1.19 -107.88 C1.14 -113.12, 3.98 -118.41, 5.63 -121.24 M5.63 -121.24 C5.63 -121.24, 5.63 -121.24, 5.63 -121.24 M5.63 -121.24 C5.63 -121.24, 5.63 -121.24, 5.63 -121.24" stroke="#e03131" stroke-width="2" fill="none"></path></g></g><mask id="mask-1MyzW-FR8a6WWqY6O8sDL"><rect x="0" y="0" fill="#fff" width="577.7849312576309" height="634.2069761198246"></rect><rect x="453.74283496712815" y="340.5285529726825" fill="#000" width="43.80796813964844" height="20" opacity="1"></rect></mask><g stroke-opacity="0.9" fill-opacity="0.9" transform="translate(453.74283496712815 340.5285529726825) rotate(0 22.02537801404469 10.45452724806961)"><text x="21.90398406982422" y="0" font-family="Virgil, Segoe UI Emoji" font-size="16px" fill="#1e1e1e" text-anchor="middle" style="white-space: pre;" direction="ltr" dominant-baseline="text-before-edge">recipe</text></g><g mask="url(#mask-Wl-mmJ3LT8BQ-HhqhYX9l)" stroke-linecap="round"><g stroke-opacity="0.9" fill-opacity="0.9" transform="translate(527.9421700859511 245.63942501886174) rotate(0 2.9112120263826 -70.57962900899435)"><path d="M0.39 0.03 C1.22 -23.4, 4.47 -116.81, 5.3 -140.5 M-0.87 -0.99 C-0.26 -24.79, 3.21 -118.89, 4.08 -142.28" stroke="#e03131" stroke-width="2" fill="none"></path></g><g stroke-opacity="0.9" fill-opacity="0.9" transform="translate(527.9421700859511 245.63942501886174) rotate(0 2.9112120263826 -70.57962900899435)"><path d="M2.56 -142.83 L10.7 -129.16 L-2.41 -129.94 L5.83 -143.86" stroke="none" stroke-width="0" fill="#e03131" fill-rule="evenodd"></path><path d="M4.08 -142.28 C6.04 -138.45, 8.72 -133.87, 9.92 -128.46 M4.08 -142.28 C5.72 -138.67, 6.8 -136.36, 9.92 -128.46 M9.92 -128.46 C5.31 -127.45, 3.44 -127.81, -2.75 -128.92 M9.92 -128.46 C6.52 -128.43, 2.06 -128.21, -2.75 -128.92 M-2.75 -128.92 C0.12 -131.5, 2.62 -137.99, 4.08 -142.28 M-2.75 -128.92 C-0.5 -132.49, -0.37 -135.57, 4.08 -142.28 M4.08 -142.28 C4.08 -142.28, 4.08 -142.28, 4.08 -142.28 M4.08 -142.28 C4.08 -142.28, 4.08 -142.28, 4.08 -142.28" stroke="#e03131" stroke-width="2" fill="none"></path></g></g><mask id="mask-Wl-mmJ3LT8BQ-HhqhYX9l"><rect x="0" y="0" fill="#fff" width="633.7645941387163" height="486.79868303685043"></rect><rect x="497.8614082353797" y="165.05979600986734" fill="#000" width="65.98394775390625" height="20" opacity="1"></rect></mask><g stroke-opacity="0.9" fill-opacity="0.9" transform="translate(497.8614082353797 165.05979600986734) rotate(0 32.29902765472525 9.458502851976107)"><text x="32.991973876953125" y="0" font-family="Virgil, Segoe UI Emoji" font-size="16px" fill="#1e1e1e" text-anchor="middle" style="white-space: pre;" direction="ltr" dominant-baseline="text-before-edge">response</text></g><g mask="url(#mask-leMG2s9jZ32XJRr93gwXx)" stroke-linecap="round"><g stroke-opacity="0.9" fill-opacity="0.9" transform="translate(447.0236325263304 112.05311185364383) rotate(0 -0.8840810010215137 68.01139231224124)"><path d="M-0.95 0.9 C-1.45 23.45, -2.02 112.79, -2.18 135.13 M0.76 0.33 C-0.01 23.01, -2.76 113.63, -3.35 136.2" stroke="#e03131" stroke-width="2" fill="none"></path></g><g stroke-opacity="0.9" fill-opacity="0.9" transform="translate(447.0236325263304 112.05311185364383) rotate(0 -0.8840810010215137 68.01139231224124)"><path d="M-3.3 135.56 L-7.78 122.84 L1.92 120.82 L-1.95 137.17" stroke="none" stroke-width="0" fill="#e03131" fill-rule="evenodd"></path><path d="M-3.35 136.2 C-4.4 130.55, -8.84 125.81, -9.3 122.43 M-3.35 136.2 C-4.79 133.96, -5.56 130.02, -9.3 122.43 M-9.3 122.43 C-4.3 122.73, -0.03 122.89, 3.38 122.79 M-9.3 122.43 C-6.27 122.62, -3.27 122.99, 3.38 122.79 M3.38 122.79 C0.89 125.25, 1.01 130.5, -3.35 136.2 M3.38 122.79 C1.36 128.74, -1.78 132.86, -3.35 136.2 M-3.35 136.2 C-3.35 136.2, -3.35 136.2, -3.35 136.2 M-3.35 136.2 C-3.35 136.2, -3.35 136.2, -3.35 136.2" stroke="#e03131" stroke-width="2" fill="none"></path></g></g><mask id="mask-leMG2s9jZ32XJRr93gwXx"><rect x="0" y="0" fill="#fff" width="548.7917945283734" height="348.0758964781263"></rect><rect x="416.17157209415564" y="170.06450416588507" fill="#000" width="59.93595886230469" height="20" opacity="1"></rect></mask><g stroke-opacity="0.9" fill-opacity="0.9" transform="translate(416.17157209415564 170.06450416588507) rotate(0 29.555702984333948 10.253635585308132)"><text x="29.967979431152344" y="0" font-family="Virgil, Segoe UI Emoji" font-size="16px" fill="#1e1e1e" text-anchor="middle" style="white-space: pre;" direction="ltr" dominant-baseline="text-before-edge">request</text></g><g stroke-opacity="0.9" fill-opacity="0.9" transform="translate(685.5518799226684 226.9866033843657) rotate(0 32.8125 9.600000000000023)"><text x="0" y="0" font-family="Cascadia, Segoe UI Emoji" font-size="16px" fill="#1e1e1e" text-anchor="start" style="white-space: pre;" direction="ltr" dominant-baseline="text-before-edge">Caching</text></g><g stroke-opacity="0.9" fill-opacity="0.9" transform="translate(689.1394175072164 288.3692031902972) rotate(0 32.8125 9.600000000000023)"><text x="0" y="0" font-family="Cascadia, Segoe UI Emoji" font-size="16px" fill="#1e1e1e" text-anchor="start" style="white-space: pre;" direction="ltr" dominant-baseline="text-before-edge">Retries</text></g></svg>
